<?xml version="1.0" standalone="no"?><svg xmlns:xlink="http://www.w3.org/1999/xlink" xmlns="http://www.w3.org/2000/svg" viewBox="0 0 1920 1200.0105783725173" preserveAspectRatio="xMaxYMax slice"><g transform="scale(1.6925396027821118)"><rect x="0" y="0" width="1134.4" height="709" fill="#ffffff"/><path d="M 0 0 A 70.9 70.9 0 0 1  70.9 70.9 L 0 0 A 70.9 70.9 0 0 0 70.9 70.9" fill="#507cbd"/><path d="M 70.9 70.9 A 70.9 70.9 0 0 1  141.8 0 L 70.9 70.9 A 70.9 70.9 0 0 0 141.8 0" fill="#f7848e"/><rect x="141.8" y="0" width="70.9" height="70.9" fill="#ffffff"/><path d="M 141.8 35.45 A 35.45 35.45 0 0 1  177.25 0 L 141.8 35.45 A 35.45 35.45 0 0 0 177.25 0" fill="#7d9dce"/><path d="M 177.25 0 A 35.45 35.45 0 0 1  212.7 35.45 L 177.25 0 A 35.45 35.45 0 0 0 212.7 35.45" fill="#f99fa7"/><path d="M 141.8 35.45 A 35.45 35.45 0 0 1  177.25 70.9 L 141.8 35.45 A 35.45 35.45 0 0 0 177.25 70.9" fill="#f67b86"/><path d="M 177.25 70.9 A 35.45 35.45 0 0 1  212.7 35.45 L 177.25 70.9 A 35.45 35.45 0 0 0 212.7 35.45" fill="#fcd1d5"/><rect x="212.70000000000002" y="0" width="70.9" height="70.9" fill="#ffffff"/><path d="M 212.7 35.45 A 35.45 35.45 0 0 1  248.14999999999998 0 L 212.7 35.45 A 35.45 35.45 0 0 0 248.14999999999998 0" fill="#f7818b"/><path d="M 248.15 35.45 A 35.45 35.45 0 0 1  283.6 0 L 248.15 35.45 A 35.45 35.45 0 0 0 283.6 0" fill="#f78c96"/><path d="M 212.7 35.45 A 35.45 35.45 0 0 1  248.14999999999998 70.9 L 212.7 35.45 A 35.45 35.45 0 0 0 248.14999999999998 70.9" fill="#becee6"/><path d="M 248.15 70.9 A 35.45 35.45 0 0 1  283.6 35.45 L 248.15 70.9 A 35.45 35.45 0 0 0 283.6 35.45" fill="#fffbfc"/><path d="M 283.6 70.9 A 70.9 70.9 0 0 1  354.5 0 L 283.6 70.9 A 70.9 70.9 0 0 0 354.5 0" fill="#f67681"/><rect x="354.5" y="0" width="70.9" height="70.9" fill="#ffffff"/><path d="M 354.5 35.45 A 35.45 35.45 0 0 1  389.95 0 L 354.5 35.45 A 35.45 35.45 0 0 0 389.95 0" fill="#2f63b0"/><path d="M 389.95 35.45 A 35.45 35.45 0 0 1  425.4 0 L 389.95 35.45 A 35.45 35.45 0 0 0 425.4 0" fill="#f67f8a"/><path d="M 354.5 35.45 A 35.45 35.45 0 0 1  389.95 70.9 L 354.5 35.45 A 35.45 35.45 0 0 0 389.95 70.9" fill="#f45d6b"/><path d="M 389.95 35.45 A 35.45 35.45 0 0 1  425.4 70.9 L 389.95 35.45 A 35.45 35.45 0 0 0 425.4 70.9" fill="#7396ca"/><path d="M 425.4 70.9 A 70.9 70.9 0 0 1  496.29999999999995 0 L 425.4 70.9 A 70.9 70.9 0 0 0 496.29999999999995 0" fill="#88a6d2"/><path d="M 496.3 0 A 70.9 70.9 0 0 1  567.2 70.9 L 496.3 0 A 70.9 70.9 0 0 0 567.2 70.9" fill="#fefeff"/><rect x="567.2" y="0" width="70.9" height="70.9" fill="#ffffff"/><path d="M 567.2 35.45 A 35.45 35.45 0 0 1  602.6500000000001 0 L 567.2 35.45 A 35.45 35.45 0 0 0 602.6500000000001 0" fill="#ebf0f7"/><path d="M 602.65 35.45 A 35.45 35.45 0 0 1  638.1 0 L 602.65 35.45 A 35.45 35.45 0 0 0 638.1 0" fill="#98b1d8"/><path d="M 567.2 35.45 A 35.45 35.45 0 0 1  602.6500000000001 70.9 L 567.2 35.45 A 35.45 35.45 0 0 0 602.6500000000001 70.9" fill="#a5bbdd"/><path d="M 602.65 35.45 A 35.45 35.45 0 0 1  638.1 70.9 L 602.65 35.45 A 35.45 35.45 0 0 0 638.1 70.9" fill="#94afd6"/><path d="M 638.1 0 A 70.9 70.9 0 0 1  709 70.9 L 638.1 0 A 70.9 70.9 0 0 0 709 70.9" fill="#f9abb2"/><path d="M 709 0 A 70.9 70.9 0 0 1  779.9 70.9 L 709 0 A 70.9 70.9 0 0 0 779.9 70.9" fill="#fee9eb"/><path d="M 779.9 70.9 A 70.9 70.9 0 0 1  850.8 0 L 779.9 70.9 A 70.9 70.9 0 0 0 850.8 0" fill="#f45f6c"/><path d="M 850.8 70.9 A 70.9 70.9 0 0 1  921.6999999999999 0 L 850.8 70.9 A 70.9 70.9 0 0 0 921.6999999999999 0" fill="#d2ddee"/><path d="M 921.7 0 A 70.9 70.9 0 0 1  992.6 70.9 L 921.7 0 A 70.9 70.9 0 0 0 992.6 70.9" fill="#c9d6ea"/><rect x="992.6000000000001" y="0" width="70.9" height="70.9" fill="#ffffff"/><path d="M 992.6 35.45 A 35.45 35.45 0 0 1  1028.05 0 L 992.6 35.45 A 35.45 35.45 0 0 0 1028.05 0" fill="#f9a3ab"/><path d="M 1028.05 0 A 35.45 35.45 0 0 1  1063.5 35.45 L 1028.05 0 A 35.45 35.45 0 0 0 1063.5 35.45" fill="#fef2f3"/><path d="M 992.6 35.45 A 35.45 35.45 0 0 1  1028.05 70.9 L 992.6 35.45 A 35.45 35.45 0 0 0 1028.05 70.9" fill="#aabfdf"/><path d="M 1028.05 35.45 A 35.45 35.45 0 0 1  1063.5 70.9 L 1028.05 35.45 A 35.45 35.45 0 0 0 1063.5 70.9" fill="#fab7bd"/><path d="M 1063.5 70.9 A 70.9 70.9 0 0 1  1134.4 0 L 1063.5 70.9 A 70.9 70.9 0 0 0 1134.4 0" fill="#8fabd5"/><rect x="0" y="70.9" width="70.9" height="70.9" fill="#ffffff"/><path d="M 0 106.35000000000001 A 35.45 35.45 0 0 1  35.45 70.9 L 0 106.35000000000001 A 35.45 35.45 0 0 0 35.45 70.9" fill="#f1f4fa"/><path d="M 35.45 70.9 A 35.45 35.45 0 0 1  70.9 106.35000000000001 L 35.45 70.9 A 35.45 35.45 0 0 0 70.9 106.35000000000001" fill="#9db5da"/><path d="M 0 106.35 A 35.45 35.45 0 0 1  35.45 141.8 L 0 106.35 A 35.45 35.45 0 0 0 35.45 141.8" fill="#fffdfd"/><path d="M 35.45 141.8 A 35.45 35.45 0 0 1  70.9 106.35 L 35.45 141.8 A 35.45 35.45 0 0 0 70.9 106.35" fill="#eef2f8"/><path d="M 70.9 141.8 A 70.9 70.9 0 0 1  141.8 70.9 L 70.9 141.8 A 70.9 70.9 0 0 0 141.8 70.9" fill="#f7848e"/><rect x="141.8" y="70.9" width="70.9" height="70.9" fill="#ffffff"/><path d="M 141.8 106.35000000000001 A 35.45 35.45 0 0 1  177.25 70.9 L 141.8 106.35000000000001 A 35.45 35.45 0 0 0 177.25 70.9" fill="#e2e9f4"/><path d="M 177.25 70.9 A 35.45 35.45 0 0 1  212.7 106.35000000000001 L 177.25 70.9 A 35.45 35.45 0 0 0 212.7 106.35000000000001" fill="#4775b9"/><path d="M 141.8 106.35 A 35.45 35.45 0 0 1  177.25 141.8 L 141.8 106.35 A 35.45 35.45 0 0 0 177.25 141.8" fill="#406fb6"/><path d="M 177.25 141.8 A 35.45 35.45 0 0 1  212.7 106.35 L 177.25 141.8 A 35.45 35.45 0 0 0 212.7 106.35" fill="#b5c8e3"/><rect x="212.70000000000002" y="70.9" width="70.9" height="70.9" fill="#ffffff"/><path d="M 212.7 106.35000000000001 A 35.45 35.45 0 0 1  248.14999999999998 70.9 L 212.7 106.35000000000001 A 35.45 35.45 0 0 0 248.14999999999998 70.9" fill="#cedbed"/><path d="M 248.15 70.9 A 35.45 35.45 0 0 1  283.6 106.35000000000001 L 248.15 70.9 A 35.45 35.45 0 0 0 283.6 106.35000000000001" fill="#8ba8d3"/><path d="M 212.7 106.35 A 35.45 35.45 0 0 1  248.14999999999998 141.8 L 212.7 106.35 A 35.45 35.45 0 0 0 248.14999999999998 141.8" fill="#a4bbdc"/><path d="M 248.15 106.35 A 35.45 35.45 0 0 1  283.6 141.8 L 248.15 106.35 A 35.45 35.45 0 0 0 283.6 141.8" fill="#eaeff7"/><path d="M 283.6 70.9 A 70.9 70.9 0 0 1  354.5 141.8 L 283.6 70.9 A 70.9 70.9 0 0 0 354.5 141.8" fill="#d7e1f0"/><rect x="354.5" y="70.9" width="70.9" height="70.9" fill="#ffffff"/><path d="M 354.5 106.35000000000001 A 35.45 35.45 0 0 1  389.95 70.9 L 354.5 106.35000000000001 A 35.45 35.45 0 0 0 389.95 70.9" fill="#7497ca"/><path d="M 389.95 70.9 A 35.45 35.45 0 0 1  425.4 106.35000000000001 L 389.95 70.9 A 35.45 35.45 0 0 0 425.4 106.35000000000001" fill="#afc3e1"/><path d="M 354.5 106.35 A 35.45 35.45 0 0 1  389.95 141.8 L 354.5 106.35 A 35.45 35.45 0 0 0 389.95 141.8" fill="#b3c6e2"/><path d="M 389.95 106.35 A 35.45 35.45 0 0 1  425.4 141.8 L 389.95 106.35 A 35.45 35.45 0 0 0 425.4 141.8" fill="#f78690"/><rect x="425.40000000000003" y="70.9" width="70.9" height="70.9" fill="#ffffff"/><path d="M 425.4 70.9 A 35.45 35.45 0 0 1  460.84999999999997 106.35000000000001 L 425.4 70.9 A 35.45 35.45 0 0 0 460.84999999999997 106.35000000000001" fill="#f897a0"/><path d="M 460.85 70.9 A 35.45 35.45 0 0 1  496.3 106.35000000000001 L 460.85 70.9 A 35.45 35.45 0 0 0 496.3 106.35000000000001" fill="#f78892"/><path d="M 425.4 106.35 A 35.45 35.45 0 0 1  460.84999999999997 141.8 L 425.4 106.35 A 35.45 35.45 0 0 0 460.84999999999997 141.8" fill="#c1d0e7"/><path d="M 460.85 106.35 A 35.45 35.45 0 0 1  496.3 141.8 L 460.85 106.35 A 35.45 35.45 0 0 0 496.3 141.8" fill="#9fb7da"/><path d="M 496.3 70.9 A 70.9 70.9 0 0 1  567.2 141.8 L 496.3 70.9 A 70.9 70.9 0 0 0 567.2 141.8" fill="#ebf0f8"/><path d="M 567.2 70.9 A 70.9 70.9 0 0 1  638.1 141.8 L 567.2 70.9 A 70.9 70.9 0 0 0 638.1 141.8" fill="#fcfdfe"/><path d="M 638.1 70.9 A 70.9 70.9 0 0 1  709 141.8 L 638.1 70.9 A 70.9 70.9 0 0 0 709 141.8" fill="#f8fafd"/><rect x="709" y="70.9" width="70.9" height="70.9" fill="#ffffff"/><path d="M 709 106.35000000000001 A 35.45 35.45 0 0 1  744.45 70.9 L 709 106.35000000000001 A 35.45 35.45 0 0 0 744.45 70.9" fill="#f6727e"/><path d="M 744.45 70.9 A 35.45 35.45 0 0 1  779.9000000000001 106.35000000000001 L 744.45 70.9 A 35.45 35.45 0 0 0 779.9000000000001 106.35000000000001" fill="#f67a85"/><path d="M 709 106.35 A 35.45 35.45 0 0 1  744.45 141.8 L 709 106.35 A 35.45 35.45 0 0 0 744.45 141.8" fill="#3c6cb5"/><path d="M 744.45 106.35 A 35.45 35.45 0 0 1  779.9000000000001 141.8 L 744.45 106.35 A 35.45 35.45 0 0 0 779.9000000000001 141.8" fill="#fbc5ca"/><path d="M 779.9 141.8 A 70.9 70.9 0 0 1  850.8 70.9 L 779.9 141.8 A 70.9 70.9 0 0 0 850.8 70.9" fill="#fbbfc4"/><rect x="850.8000000000001" y="70.9" width="70.9" height="70.9" fill="#ffffff"/><path d="M 850.8 106.35000000000001 A 35.45 35.45 0 0 1  886.25 70.9 L 850.8 106.35000000000001 A 35.45 35.45 0 0 0 886.25 70.9" fill="#c5d3e9"/><path d="M 886.25 70.9 A 35.45 35.45 0 0 1  921.7 106.35000000000001 L 886.25 70.9 A 35.45 35.45 0 0 0 921.7 106.35000000000001" fill="#84a3d0"/><path d="M 850.8 106.35 A 35.45 35.45 0 0 1  886.25 141.8 L 850.8 106.35 A 35.45 35.45 0 0 0 886.25 141.8" fill="#e4ebf5"/><path d="M 886.25 141.8 A 35.45 35.45 0 0 1  921.7 106.35 L 886.25 141.8 A 35.45 35.45 0 0 0 921.7 106.35" fill="#d6e1f0"/><rect x="921.7" y="70.9" width="70.9" height="70.9" fill="#ffffff"/><path d="M 921.7 70.9 A 35.45 35.45 0 0 1  957.1500000000001 106.35000000000001 L 921.7 70.9 A 35.45 35.45 0 0 0 957.1500000000001 106.35000000000001" fill="#fab7bd"/><path d="M 957.15 106.35000000000001 A 35.45 35.45 0 0 1  992.6 70.9 L 957.15 106.35000000000001 A 35.45 35.45 0 0 0 992.6 70.9" fill="#f899a1"/><path d="M 921.7 141.8 A 35.45 35.45 0 0 1  957.1500000000001 106.35 L 921.7 141.8 A 35.45 35.45 0 0 0 957.1500000000001 106.35" fill="#f56976"/><path d="M 957.15 141.8 A 35.45 35.45 0 0 1  992.6 106.35 L 957.15 141.8 A 35.45 35.45 0 0 0 992.6 106.35" fill="#fab3ba"/><path d="M 992.6 70.9 A 70.9 70.9 0 0 1  1063.5 141.8 L 992.6 70.9 A 70.9 70.9 0 0 0 1063.5 141.8" fill="#dee6f3"/><path d="M 1063.5 141.8 A 70.9 70.9 0 0 1  1134.4 70.9 L 1063.5 141.8 A 70.9 70.9 0 0 0 1134.4 70.9" fill="#4473b8"/><path d="M 0 141.8 A 70.9 70.9 0 0 1  70.9 212.70000000000002 L 0 141.8 A 70.9 70.9 0 0 0 70.9 212.70000000000002" fill="#7b9ccd"/><rect x="70.9" y="141.8" width="70.9" height="70.9" fill="#ffffff"/><path d="M 70.9 141.8 A 35.45 35.45 0 0 1  106.35000000000001 177.25 L 70.9 141.8 A 35.45 35.45 0 0 0 106.35000000000001 177.25" fill="#fcd5d9"/><path d="M 106.35 141.8 A 35.45 35.45 0 0 1  141.8 177.25 L 106.35 141.8 A 35.45 35.45 0 0 0 141.8 177.25" fill="#c8d6ea"/><path d="M 70.9 177.25 A 35.45 35.45 0 0 1  106.35000000000001 212.7 L 70.9 177.25 A 35.45 35.45 0 0 0 106.35000000000001 212.7" fill="#fef7f7"/><path d="M 106.35 177.25 A 35.45 35.45 0 0 1  141.8 212.7 L 106.35 177.25 A 35.45 35.45 0 0 0 141.8 212.7" fill="#f9adb4"/><path d="M 141.8 212.70000000000002 A 70.9 70.9 0 0 1  212.70000000000002 141.8 L 141.8 212.70000000000002 A 70.9 70.9 0 0 0 212.70000000000002 141.8" fill="#90acd5"/><path d="M 212.7 141.8 A 70.9 70.9 0 0 1  283.6 212.70000000000002 L 212.7 141.8 A 70.9 70.9 0 0 0 283.6 212.70000000000002" fill="#bacbe5"/><path d="M 283.6 212.70000000000002 A 70.9 70.9 0 0 1  354.5 141.8 L 283.6 212.70000000000002 A 70.9 70.9 0 0 0 354.5 141.8" fill="#f56d7a"/><path d="M 354.5 212.70000000000002 A 70.9 70.9 0 0 1  425.4 141.8 L 354.5 212.70000000000002 A 70.9 70.9 0 0 0 425.4 141.8" fill="#87a5d1"/><rect x="425.40000000000003" y="141.8" width="70.9" height="70.9" fill="#ffffff"/><path d="M 425.4 141.8 A 35.45 35.45 0 0 1  460.84999999999997 177.25 L 425.4 141.8 A 35.45 35.45 0 0 0 460.84999999999997 177.25" fill="#fbc7cc"/><path d="M 460.85 141.8 A 35.45 35.45 0 0 1  496.3 177.25 L 460.85 141.8 A 35.45 35.45 0 0 0 496.3 177.25" fill="#81a0cf"/><path d="M 425.4 177.25 A 35.45 35.45 0 0 1  460.84999999999997 212.7 L 425.4 177.25 A 35.45 35.45 0 0 0 460.84999999999997 212.7" fill="#fde7e9"/><path d="M 460.85 212.7 A 35.45 35.45 0 0 1  496.3 177.25 L 460.85 212.7 A 35.45 35.45 0 0 0 496.3 177.25" fill="#f5f8fb"/><path d="M 496.3 212.70000000000002 A 70.9 70.9 0 0 1  567.2 141.8 L 496.3 212.70000000000002 A 70.9 70.9 0 0 0 567.2 141.8" fill="#f89da6"/><rect x="567.2" y="141.8" width="70.9" height="70.9" fill="#ffffff"/><path d="M 567.2 141.8 A 35.45 35.45 0 0 1  602.6500000000001 177.25 L 567.2 141.8 A 35.45 35.45 0 0 0 602.6500000000001 177.25" fill="#f78892"/><path d="M 602.65 141.8 A 35.45 35.45 0 0 1  638.1 177.25 L 602.65 141.8 A 35.45 35.45 0 0 0 638.1 177.25" fill="#becee6"/><path d="M 567.2 212.7 A 35.45 35.45 0 0 1  602.6500000000001 177.25 L 567.2 212.7 A 35.45 35.45 0 0 0 602.6500000000001 177.25" fill="#698ec6"/><path d="M 602.65 212.7 A 35.45 35.45 0 0 1  638.1 177.25 L 602.65 212.7 A 35.45 35.45 0 0 0 638.1 177.25" fill="#ecf1f8"/><path d="M 638.1 141.8 A 70.9 70.9 0 0 1  709 212.70000000000002 L 638.1 141.8 A 70.9 70.9 0 0 0 709 212.70000000000002" fill="#c4d3e9"/><path d="M 709 141.8 A 70.9 70.9 0 0 1  779.9 212.70000000000002 L 709 141.8 A 70.9 70.9 0 0 0 779.9 212.70000000000002" fill="#becee6"/><path d="M 779.9 212.70000000000002 A 70.9 70.9 0 0 1  850.8 141.8 L 779.9 212.70000000000002 A 70.9 70.9 0 0 0 850.8 141.8" fill="#f9aab1"/><path d="M 850.8 141.8 A 70.9 70.9 0 0 1  921.6999999999999 212.70000000000002 L 850.8 141.8 A 70.9 70.9 0 0 0 921.6999999999999 212.70000000000002" fill="#fffcfc"/><path d="M 921.7 212.70000000000002 A 70.9 70.9 0 0 1  992.6 141.8 L 921.7 212.70000000000002 A 70.9 70.9 0 0 0 992.6 141.8" fill="#f56471"/><path d="M 992.6 141.8 A 70.9 70.9 0 0 1  1063.5 212.70000000000002 L 992.6 141.8 A 70.9 70.9 0 0 0 1063.5 212.70000000000002" fill="#fab5bb"/><path d="M 1063.5 212.70000000000002 A 70.9 70.9 0 0 1  1134.4 141.8 L 1063.5 212.70000000000002 A 70.9 70.9 0 0 0 1134.4 141.8" fill="#81a1cf"/><path d="M 0 212.7 A 70.9 70.9 0 0 1  70.9 283.6 L 0 212.7 A 70.9 70.9 0 0 0 70.9 283.6" fill="#f6737f"/><path d="M 70.9 283.6 A 70.9 70.9 0 0 1  141.8 212.7 L 70.9 283.6 A 70.9 70.9 0 0 0 141.8 212.7" fill="#fef5f6"/><rect x="141.8" y="212.70000000000002" width="70.9" height="70.9" fill="#ffffff"/><path d="M 141.8 212.7 A 35.45 35.45 0 0 1  177.25 248.14999999999998 L 141.8 212.7 A 35.45 35.45 0 0 0 177.25 248.14999999999998" fill="#fcd7db"/><path d="M 177.25 248.14999999999998 A 35.45 35.45 0 0 1  212.7 212.7 L 177.25 248.14999999999998 A 35.45 35.45 0 0 0 212.7 212.7" fill="#f9a8af"/><path d="M 141.8 283.6 A 35.45 35.45 0 0 1  177.25 248.15 L 141.8 283.6 A 35.45 35.45 0 0 0 177.25 248.15" fill="#2f63b0"/><path d="M 177.25 248.15 A 35.45 35.45 0 0 1  212.7 283.6 L 177.25 248.15 A 35.45 35.45 0 0 0 212.7 283.6" fill="#f67d89"/><path d="M 212.7 283.6 A 70.9 70.9 0 0 1  283.6 212.7 L 212.7 283.6 A 70.9 70.9 0 0 0 283.6 212.7" fill="#c0cfe7"/><path d="M 283.6 283.6 A 70.9 70.9 0 0 1  354.5 212.7 L 283.6 283.6 A 70.9 70.9 0 0 0 354.5 212.7" fill="#4d7abc"/><path d="M 354.5 283.6 A 70.9 70.9 0 0 1  425.4 212.7 L 354.5 283.6 A 70.9 70.9 0 0 0 425.4 212.7" fill="#4674b9"/><rect x="425.40000000000003" y="212.70000000000002" width="70.9" height="70.9" fill="#ffffff"/><path d="M 425.4 248.14999999999998 A 35.45 35.45 0 0 1  460.84999999999997 212.7 L 425.4 248.14999999999998 A 35.45 35.45 0 0 0 460.84999999999997 212.7" fill="#83a2d0"/><path d="M 460.85 248.14999999999998 A 35.45 35.45 0 0 1  496.3 212.7 L 460.85 248.14999999999998 A 35.45 35.45 0 0 0 496.3 212.7" fill="#bfcfe7"/><path d="M 425.4 248.15 A 35.45 35.45 0 0 1  460.84999999999997 283.6 L 425.4 248.15 A 35.45 35.45 0 0 0 460.84999999999997 283.6" fill="#fbfcfd"/><path d="M 460.85 283.6 A 35.45 35.45 0 0 1  496.3 248.15 L 460.85 283.6 A 35.45 35.45 0 0 0 496.3 248.15" fill="#fcd0d4"/><path d="M 496.3 212.7 A 70.9 70.9 0 0 1  567.2 283.6 L 496.3 212.7 A 70.9 70.9 0 0 0 567.2 283.6" fill="#3b6cb5"/><path d="M 567.2 283.6 A 70.9 70.9 0 0 1  638.1 212.7 L 567.2 283.6 A 70.9 70.9 0 0 0 638.1 212.7" fill="#7d9dce"/><path d="M 638.1 283.6 A 70.9 70.9 0 0 1  709 212.7 L 638.1 283.6 A 70.9 70.9 0 0 0 709 212.7" fill="#b4c7e3"/><path d="M 709 212.7 A 70.9 70.9 0 0 1  779.9 283.6 L 709 212.7 A 70.9 70.9 0 0 0 779.9 283.6" fill="#dde5f2"/><path d="M 779.9 283.6 A 70.9 70.9 0 0 1  850.8 212.7 L 779.9 283.6 A 70.9 70.9 0 0 0 850.8 212.7" fill="#a6bcdd"/><path d="M 850.8 283.6 A 70.9 70.9 0 0 1  921.6999999999999 212.7 L 850.8 283.6 A 70.9 70.9 0 0 0 921.6999999999999 212.7" fill="#a8bede"/><path d="M 921.7 283.6 A 70.9 70.9 0 0 1  992.6 212.7 L 921.7 283.6 A 70.9 70.9 0 0 0 992.6 212.7" fill="#96b0d7"/><path d="M 992.6 212.7 A 70.9 70.9 0 0 1  1063.5 283.6 L 992.6 212.7 A 70.9 70.9 0 0 0 1063.5 283.6" fill="#f78b95"/><path d="M 1063.5 283.6 A 70.9 70.9 0 0 1  1134.4 212.7 L 1063.5 283.6 A 70.9 70.9 0 0 0 1134.4 212.7" fill="#f45d6b"/><path d="M 0 283.6 A 70.9 70.9 0 0 1  70.9 354.5 L 0 283.6 A 70.9 70.9 0 0 0 70.9 354.5" fill="#b8cae4"/><path d="M 70.9 283.6 A 70.9 70.9 0 0 1  141.8 354.5 L 70.9 283.6 A 70.9 70.9 0 0 0 141.8 354.5" fill="#fbc3c8"/><path d="M 141.8 354.5 A 70.9 70.9 0 0 1  212.70000000000002 283.6 L 141.8 354.5 A 70.9 70.9 0 0 0 212.70000000000002 283.6" fill="#92add6"/><path d="M 212.7 283.6 A 70.9 70.9 0 0 1  283.6 354.5 L 212.7 283.6 A 70.9 70.9 0 0 0 283.6 354.5" fill="#f99fa7"/><rect x="283.6" y="283.6" width="70.9" height="70.9" fill="#ffffff"/><path d="M 283.6 319.05 A 35.45 35.45 0 0 1  319.05 283.6 L 283.6 319.05 A 35.45 35.45 0 0 0 319.05 283.6" fill="#fab4ba"/><path d="M 319.05 283.6 A 35.45 35.45 0 0 1  354.5 319.05 L 319.05 283.6 A 35.45 35.45 0 0 0 354.5 319.05" fill="#5882c0"/><path d="M 283.6 319.05 A 35.45 35.45 0 0 1  319.05 354.5 L 283.6 319.05 A 35.45 35.45 0 0 0 319.05 354.5" fill="#7c9dcd"/><path d="M 319.05 319.05 A 35.45 35.45 0 0 1  354.5 354.5 L 319.05 319.05 A 35.45 35.45 0 0 0 354.5 354.5" fill="#fffbfb"/><path d="M 354.5 354.5 A 70.9 70.9 0 0 1  425.4 283.6 L 354.5 354.5 A 70.9 70.9 0 0 0 425.4 283.6" fill="#fde5e7"/><rect x="425.40000000000003" y="283.6" width="70.9" height="70.9" fill="#ffffff"/><path d="M 425.4 319.05 A 35.45 35.45 0 0 1  460.84999999999997 283.6 L 425.4 319.05 A 35.45 35.45 0 0 0 460.84999999999997 283.6" fill="#7e9fce"/><path d="M 460.85 283.6 A 35.45 35.45 0 0 1  496.3 319.05 L 460.85 283.6 A 35.45 35.45 0 0 0 496.3 319.05" fill="#4674b9"/><path d="M 425.4 354.5 A 35.45 35.45 0 0 1  460.84999999999997 319.05 L 425.4 354.5 A 35.45 35.45 0 0 0 460.84999999999997 319.05" fill="#fef3f4"/><path d="M 460.85 354.5 A 35.45 35.45 0 0 1  496.3 319.05 L 460.85 354.5 A 35.45 35.45 0 0 0 496.3 319.05" fill="#f78c95"/><path d="M 496.3 283.6 A 70.9 70.9 0 0 1  567.2 354.5 L 496.3 283.6 A 70.9 70.9 0 0 0 567.2 354.5" fill="#f56371"/><path d="M 567.2 354.5 A 70.9 70.9 0 0 1  638.1 283.6 L 567.2 354.5 A 70.9 70.9 0 0 0 638.1 283.6" fill="#e5ecf5"/><path d="M 638.1 354.5 A 70.9 70.9 0 0 1  709 283.6 L 638.1 354.5 A 70.9 70.9 0 0 0 709 283.6" fill="#f56d7a"/><path d="M 709 283.6 A 70.9 70.9 0 0 1  779.9 354.5 L 709 283.6 A 70.9 70.9 0 0 0 779.9 354.5" fill="#fabac0"/><rect x="779.9000000000001" y="283.6" width="70.9" height="70.9" fill="#ffffff"/><path d="M 779.9 319.05 A 35.45 35.45 0 0 1  815.35 283.6 L 779.9 319.05 A 35.45 35.45 0 0 0 815.35 283.6" fill="#f56f7c"/><path d="M 815.35 319.05 A 35.45 35.45 0 0 1  850.8000000000001 283.6 L 815.35 319.05 A 35.45 35.45 0 0 0 850.8000000000001 283.6" fill="#eff3f9"/><path d="M 779.9 319.05 A 35.45 35.45 0 0 1  815.35 354.5 L 779.9 319.05 A 35.45 35.45 0 0 0 815.35 354.5" fill="#f67783"/><path d="M 815.35 354.5 A 35.45 35.45 0 0 1  850.8000000000001 319.05 L 815.35 354.5 A 35.45 35.45 0 0 0 850.8000000000001 319.05" fill="#fab4bb"/><rect x="850.8000000000001" y="283.6" width="70.9" height="70.9" fill="#ffffff"/><path d="M 850.8 319.05 A 35.45 35.45 0 0 1  886.25 283.6 L 850.8 319.05 A 35.45 35.45 0 0 0 886.25 283.6" fill="#fab4ba"/><path d="M 886.25 319.05 A 35.45 35.45 0 0 1  921.7 283.6 L 886.25 319.05 A 35.45 35.45 0 0 0 921.7 283.6" fill="#4c79bb"/><path d="M 850.8 354.5 A 35.45 35.45 0 0 1  886.25 319.05 L 850.8 354.5 A 35.45 35.45 0 0 0 886.25 319.05" fill="#f9a9b1"/><path d="M 886.25 354.5 A 35.45 35.45 0 0 1  921.7 319.05 L 886.25 354.5 A 35.45 35.45 0 0 0 921.7 319.05" fill="#f67c87"/><rect x="921.7" y="283.6" width="70.9" height="70.9" fill="#ffffff"/><path d="M 921.7 319.05 A 35.45 35.45 0 0 1  957.1500000000001 283.6 L 921.7 319.05 A 35.45 35.45 0 0 0 957.1500000000001 283.6" fill="#f56c79"/><path d="M 957.15 319.05 A 35.45 35.45 0 0 1  992.6 283.6 L 957.15 319.05 A 35.45 35.45 0 0 0 992.6 283.6" fill="#fef1f2"/><path d="M 921.7 354.5 A 35.45 35.45 0 0 1  957.1500000000001 319.05 L 921.7 354.5 A 35.45 35.45 0 0 0 957.1500000000001 319.05" fill="#3366b2"/><path d="M 957.15 354.5 A 35.45 35.45 0 0 1  992.6 319.05 L 957.15 354.5 A 35.45 35.45 0 0 0 992.6 319.05" fill="#91acd5"/><path d="M 992.6 354.5 A 70.9 70.9 0 0 1  1063.5 283.6 L 992.6 354.5 A 70.9 70.9 0 0 0 1063.5 283.6" fill="#fffafa"/><path d="M 1063.5 283.6 A 70.9 70.9 0 0 1  1134.4 354.5 L 1063.5 283.6 A 70.9 70.9 0 0 0 1134.4 354.5" fill="#82a1d0"/><path d="M 0 425.4 A 70.9 70.9 0 0 1  70.9 354.5 L 0 425.4 A 70.9 70.9 0 0 0 70.9 354.5" fill="#fcd9dc"/><path d="M 70.9 354.5 A 70.9 70.9 0 0 1  141.8 425.4 L 70.9 354.5 A 70.9 70.9 0 0 0 141.8 425.4" fill="#f78e98"/><path d="M 141.8 354.5 A 70.9 70.9 0 0 1  212.70000000000002 425.4 L 141.8 354.5 A 70.9 70.9 0 0 0 212.70000000000002 425.4" fill="#fffbfb"/><path d="M 212.7 425.4 A 70.9 70.9 0 0 1  283.6 354.5 L 212.7 425.4 A 70.9 70.9 0 0 0 283.6 354.5" fill="#3467b2"/><rect x="283.6" y="354.5" width="70.9" height="70.9" fill="#ffffff"/><path d="M 283.6 354.5 A 35.45 35.45 0 0 1  319.05 389.95 L 283.6 354.5 A 35.45 35.45 0 0 0 319.05 389.95" fill="#abc0df"/><path d="M 319.05 389.95 A 35.45 35.45 0 0 1  354.5 354.5 L 319.05 389.95 A 35.45 35.45 0 0 0 354.5 354.5" fill="#f56572"/><path d="M 283.6 425.4 A 35.45 35.45 0 0 1  319.05 389.95 L 283.6 425.4 A 35.45 35.45 0 0 0 319.05 389.95" fill="#b4c7e3"/><path d="M 319.05 389.95 A 35.45 35.45 0 0 1  354.5 425.4 L 319.05 389.95 A 35.45 35.45 0 0 0 354.5 425.4" fill="#a1b9db"/><path d="M 354.5 425.4 A 70.9 70.9 0 0 1  425.4 354.5 L 354.5 425.4 A 70.9 70.9 0 0 0 425.4 354.5" fill="#fab5bb"/><rect x="425.40000000000003" y="354.5" width="70.9" height="70.9" fill="#ffffff"/><path d="M 425.4 354.5 A 35.45 35.45 0 0 1  460.84999999999997 389.95 L 425.4 354.5 A 35.45 35.45 0 0 0 460.84999999999997 389.95" fill="#fffbfc"/><path d="M 460.85 389.95 A 35.45 35.45 0 0 1  496.3 354.5 L 460.85 389.95 A 35.45 35.45 0 0 0 496.3 354.5" fill="#c3d2e8"/><path d="M 425.4 425.4 A 35.45 35.45 0 0 1  460.84999999999997 389.95 L 425.4 425.4 A 35.45 35.45 0 0 0 460.84999999999997 389.95" fill="#fff9fa"/><path d="M 460.85 425.4 A 35.45 35.45 0 0 1  496.3 389.95 L 460.85 425.4 A 35.45 35.45 0 0 0 496.3 389.95" fill="#f89ea6"/><path d="M 496.3 425.4 A 70.9 70.9 0 0 1  567.2 354.5 L 496.3 425.4 A 70.9 70.9 0 0 0 567.2 354.5" fill="#f9a6ae"/><rect x="567.2" y="354.5" width="70.9" height="70.9" fill="#ffffff"/><path d="M 567.2 354.5 A 35.45 35.45 0 0 1  602.6500000000001 389.95 L 567.2 354.5 A 35.45 35.45 0 0 0 602.6500000000001 389.95" fill="#d2ddee"/><path d="M 602.65 354.5 A 35.45 35.45 0 0 1  638.1 389.95 L 602.65 354.5 A 35.45 35.45 0 0 0 638.1 389.95" fill="#fbcbcf"/><path d="M 567.2 389.95 A 35.45 35.45 0 0 1  602.6500000000001 425.4 L 567.2 389.95 A 35.45 35.45 0 0 0 602.6500000000001 425.4" fill="#d5dfef"/><path d="M 602.65 425.4 A 35.45 35.45 0 0 1  638.1 389.95 L 602.65 425.4 A 35.45 35.45 0 0 0 638.1 389.95" fill="#fcd0d4"/><path d="M 638.1 354.5 A 70.9 70.9 0 0 1  709 425.4 L 638.1 354.5 A 70.9 70.9 0 0 0 709 425.4" fill="#c4d2e8"/><path d="M 709 354.5 A 70.9 70.9 0 0 1  779.9 425.4 L 709 354.5 A 70.9 70.9 0 0 0 779.9 425.4" fill="#8fabd5"/><path d="M 779.9 425.4 A 70.9 70.9 0 0 1  850.8 354.5 L 779.9 425.4 A 70.9 70.9 0 0 0 850.8 354.5" fill="#537ebe"/><path d="M 850.8 354.5 A 70.9 70.9 0 0 1  921.6999999999999 425.4 L 850.8 354.5 A 70.9 70.9 0 0 0 921.6999999999999 425.4" fill="#f45d6b"/><path d="M 921.7 425.4 A 70.9 70.9 0 0 1  992.6 354.5 L 921.7 425.4 A 70.9 70.9 0 0 0 992.6 354.5" fill="#f89ca4"/><path d="M 992.6 425.4 A 70.9 70.9 0 0 1  1063.5 354.5 L 992.6 425.4 A 70.9 70.9 0 0 0 1063.5 354.5" fill="#5a83c0"/><rect x="1063.5" y="354.5" width="70.9" height="70.9" fill="#ffffff"/><path d="M 1063.5 389.95 A 35.45 35.45 0 0 1  1098.95 354.5 L 1063.5 389.95 A 35.45 35.45 0 0 0 1098.95 354.5" fill="#d7e1f0"/><path d="M 1098.95 354.5 A 35.45 35.45 0 0 1  1134.4 389.95 L 1098.95 354.5 A 35.45 35.45 0 0 0 1134.4 389.95" fill="#fffefe"/><path d="M 1063.5 389.95 A 35.45 35.45 0 0 1  1098.95 425.4 L 1063.5 389.95 A 35.45 35.45 0 0 0 1098.95 425.4" fill="#f4f7fb"/><path d="M 1098.95 425.4 A 35.45 35.45 0 0 1  1134.4 389.95 L 1098.95 425.4 A 35.45 35.45 0 0 0 1134.4 389.95" fill="#eef3f9"/><path d="M 0 496.29999999999995 A 70.9 70.9 0 0 1  70.9 425.4 L 0 496.29999999999995 A 70.9 70.9 0 0 0 70.9 425.4" fill="#f78b95"/><rect x="70.9" y="425.40000000000003" width="70.9" height="70.9" fill="#ffffff"/><path d="M 70.9 425.4 A 35.45 35.45 0 0 1  106.35000000000001 460.84999999999997 L 70.9 425.4 A 35.45 35.45 0 0 0 106.35000000000001 460.84999999999997" fill="#86a4d1"/><path d="M 106.35 425.4 A 35.45 35.45 0 0 1  141.8 460.84999999999997 L 106.35 425.4 A 35.45 35.45 0 0 0 141.8 460.84999999999997" fill="#f8969f"/><path d="M 70.9 460.85 A 35.45 35.45 0 0 1  106.35000000000001 496.3 L 70.9 460.85 A 35.45 35.45 0 0 0 106.35000000000001 496.3" fill="#3769b3"/><path d="M 106.35 496.3 A 35.45 35.45 0 0 1  141.8 460.85 L 106.35 496.3 A 35.45 35.45 0 0 0 141.8 460.85" fill="#fddcdf"/><path d="M 141.8 496.29999999999995 A 70.9 70.9 0 0 1  212.70000000000002 425.4 L 141.8 496.29999999999995 A 70.9 70.9 0 0 0 212.70000000000002 425.4" fill="#6b90c7"/><path d="M 212.7 496.29999999999995 A 70.9 70.9 0 0 1  283.6 425.4 L 212.7 496.29999999999995 A 70.9 70.9 0 0 0 283.6 425.4" fill="#6088c3"/><path d="M 283.6 425.4 A 70.9 70.9 0 0 1  354.5 496.29999999999995 L 283.6 425.4 A 70.9 70.9 0 0 0 354.5 496.29999999999995" fill="#f9a0a8"/><path d="M 354.5 496.29999999999995 A 70.9 70.9 0 0 1  425.4 425.4 L 354.5 496.29999999999995 A 70.9 70.9 0 0 0 425.4 425.4" fill="#789acc"/><path d="M 425.4 496.29999999999995 A 70.9 70.9 0 0 1  496.29999999999995 425.4 L 425.4 496.29999999999995 A 70.9 70.9 0 0 0 496.29999999999995 425.4" fill="#f67682"/><path d="M 496.3 425.4 A 70.9 70.9 0 0 1  567.2 496.29999999999995 L 496.3 425.4 A 70.9 70.9 0 0 0 567.2 496.29999999999995" fill="#5a83c0"/><path d="M 567.2 496.29999999999995 A 70.9 70.9 0 0 1  638.1 425.4 L 567.2 496.29999999999995 A 70.9 70.9 0 0 0 638.1 425.4" fill="#99b2d8"/><path d="M 638.1 496.29999999999995 A 70.9 70.9 0 0 1  709 425.4 L 638.1 496.29999999999995 A 70.9 70.9 0 0 0 709 425.4" fill="#f898a1"/><path d="M 709 425.4 A 70.9 70.9 0 0 1  779.9 496.29999999999995 L 709 425.4 A 70.9 70.9 0 0 0 779.9 496.29999999999995" fill="#d1ddee"/><path d="M 779.9 496.29999999999995 A 70.9 70.9 0 0 1  850.8 425.4 L 779.9 496.29999999999995 A 70.9 70.9 0 0 0 850.8 425.4" fill="#fddfe1"/><path d="M 850.8 425.4 A 70.9 70.9 0 0 1  921.6999999999999 496.29999999999995 L 850.8 425.4 A 70.9 70.9 0 0 0 921.6999999999999 496.29999999999995" fill="#fabbc1"/><path d="M 921.7 425.4 A 70.9 70.9 0 0 1  992.6 496.29999999999995 L 921.7 425.4 A 70.9 70.9 0 0 0 992.6 496.29999999999995" fill="#fef3f4"/><path d="M 992.6 496.29999999999995 A 70.9 70.9 0 0 1  1063.5 425.4 L 992.6 496.29999999999995 A 70.9 70.9 0 0 0 1063.5 425.4" fill="#f78f99"/><rect x="1063.5" y="425.40000000000003" width="70.9" height="70.9" fill="#ffffff"/><path d="M 1063.5 425.4 A 35.45 35.45 0 0 1  1098.95 460.84999999999997 L 1063.5 425.4 A 35.45 35.45 0 0 0 1098.95 460.84999999999997" fill="#2c61af"/><path d="M 1098.95 460.84999999999997 A 35.45 35.45 0 0 1  1134.4 425.4 L 1098.95 460.84999999999997 A 35.45 35.45 0 0 0 1134.4 425.4" fill="#f9a6ad"/><path d="M 1063.5 460.85 A 35.45 35.45 0 0 1  1098.95 496.3 L 1063.5 460.85 A 35.45 35.45 0 0 0 1098.95 496.3" fill="#86a4d1"/><path d="M 1098.95 496.3 A 35.45 35.45 0 0 1  1134.4 460.85 L 1098.95 496.3 A 35.45 35.45 0 0 0 1134.4 460.85" fill="#f9a6ad"/><path d="M 0 567.2 A 70.9 70.9 0 0 1  70.9 496.3 L 0 567.2 A 70.9 70.9 0 0 0 70.9 496.3" fill="#fde2e4"/><path d="M 70.9 496.3 A 70.9 70.9 0 0 1  141.8 567.2 L 70.9 496.3 A 70.9 70.9 0 0 0 141.8 567.2" fill="#fcd3d7"/><rect x="141.8" y="496.30000000000007" width="70.9" height="70.9" fill="#ffffff"/><path d="M 141.8 531.75 A 35.45 35.45 0 0 1  177.25 496.3 L 141.8 531.75 A 35.45 35.45 0 0 0 177.25 496.3" fill="#3e6eb6"/><path d="M 177.25 531.75 A 35.45 35.45 0 0 1  212.7 496.3 L 177.25 531.75 A 35.45 35.45 0 0 0 212.7 496.3" fill="#fccdd1"/><path d="M 141.8 567.2 A 35.45 35.45 0 0 1  177.25 531.75 L 141.8 567.2 A 35.45 35.45 0 0 0 177.25 531.75" fill="#4c79bb"/><path d="M 177.25 567.2 A 35.45 35.45 0 0 1  212.7 531.75 L 177.25 567.2 A 35.45 35.45 0 0 0 212.7 531.75" fill="#f899a2"/><path d="M 212.7 496.3 A 70.9 70.9 0 0 1  283.6 567.2 L 212.7 496.3 A 70.9 70.9 0 0 0 283.6 567.2" fill="#fcd1d5"/><path d="M 283.6 496.3 A 70.9 70.9 0 0 1  354.5 567.2 L 283.6 496.3 A 70.9 70.9 0 0 0 354.5 567.2" fill="#fddbde"/><path d="M 354.5 496.3 A 70.9 70.9 0 0 1  425.4 567.2 L 354.5 496.3 A 70.9 70.9 0 0 0 425.4 567.2" fill="#fde5e8"/><rect x="425.40000000000003" y="496.30000000000007" width="70.9" height="70.9" fill="#ffffff"/><path d="M 425.4 531.75 A 35.45 35.45 0 0 1  460.84999999999997 496.3 L 425.4 531.75 A 35.45 35.45 0 0 0 460.84999999999997 496.3" fill="#fef2f3"/><path d="M 460.85 496.3 A 35.45 35.45 0 0 1  496.3 531.75 L 460.85 496.3 A 35.45 35.45 0 0 0 496.3 531.75" fill="#9fb7db"/><path d="M 425.4 567.2 A 35.45 35.45 0 0 1  460.84999999999997 531.75 L 425.4 567.2 A 35.45 35.45 0 0 0 460.84999999999997 531.75" fill="#87a5d1"/><path d="M 460.85 531.75 A 35.45 35.45 0 0 1  496.3 567.2 L 460.85 531.75 A 35.45 35.45 0 0 0 496.3 567.2" fill="#feebed"/><path d="M 496.3 496.3 A 70.9 70.9 0 0 1  567.2 567.2 L 496.3 496.3 A 70.9 70.9 0 0 0 567.2 567.2" fill="#d7e1f0"/><path d="M 567.2 567.2 A 70.9 70.9 0 0 1  638.1 496.3 L 567.2 567.2 A 70.9 70.9 0 0 0 638.1 496.3" fill="#d0dced"/><rect x="638.1" y="496.30000000000007" width="70.9" height="70.9" fill="#ffffff"/><path d="M 638.1 496.3 A 35.45 35.45 0 0 1  673.5500000000001 531.75 L 638.1 496.3 A 35.45 35.45 0 0 0 673.5500000000001 531.75" fill="#f67682"/><path d="M 673.55 531.75 A 35.45 35.45 0 0 1  709 496.3 L 673.55 531.75 A 35.45 35.45 0 0 0 709 496.3" fill="#faafb6"/><path d="M 638.1 567.2 A 35.45 35.45 0 0 1  673.5500000000001 531.75 L 638.1 567.2 A 35.45 35.45 0 0 0 673.5500000000001 531.75" fill="#fcd4d8"/><path d="M 673.55 531.75 A 35.45 35.45 0 0 1  709 567.2 L 673.55 531.75 A 35.45 35.45 0 0 0 709 567.2" fill="#2e62af"/><path d="M 709 567.2 A 70.9 70.9 0 0 1  779.9 496.3 L 709 567.2 A 70.9 70.9 0 0 0 779.9 496.3" fill="#fcccd1"/><rect x="779.9000000000001" y="496.30000000000007" width="70.9" height="70.9" fill="#ffffff"/><path d="M 779.9 531.75 A 35.45 35.45 0 0 1  815.35 496.3 L 779.9 531.75 A 35.45 35.45 0 0 0 815.35 496.3" fill="#fddadd"/><path d="M 815.35 496.3 A 35.45 35.45 0 0 1  850.8000000000001 531.75 L 815.35 496.3 A 35.45 35.45 0 0 0 850.8000000000001 531.75" fill="#f78f98"/><path d="M 779.9 567.2 A 35.45 35.45 0 0 1  815.35 531.75 L 779.9 567.2 A 35.45 35.45 0 0 0 815.35 531.75" fill="#c2d1e8"/><path d="M 815.35 531.75 A 35.45 35.45 0 0 1  850.8000000000001 567.2 L 815.35 531.75 A 35.45 35.45 0 0 0 850.8000000000001 567.2" fill="#f67d88"/><path d="M 850.8 567.2 A 70.9 70.9 0 0 1  921.6999999999999 496.3 L 850.8 567.2 A 70.9 70.9 0 0 0 921.6999999999999 496.3" fill="#f88f99"/><path d="M 921.7 567.2 A 70.9 70.9 0 0 1  992.6 496.3 L 921.7 567.2 A 70.9 70.9 0 0 0 992.6 496.3" fill="#f9a8af"/><path d="M 992.6 496.3 A 70.9 70.9 0 0 1  1063.5 567.2 L 992.6 496.3 A 70.9 70.9 0 0 0 1063.5 567.2" fill="#6a8fc6"/><path d="M 1063.5 567.2 A 70.9 70.9 0 0 1  1134.4 496.3 L 1063.5 567.2 A 70.9 70.9 0 0 0 1134.4 496.3" fill="#6d92c8"/><path d="M 0 567.2 A 70.9 70.9 0 0 1  70.9 638.1 L 0 567.2 A 70.9 70.9 0 0 0 70.9 638.1" fill="#8fabd5"/><rect x="70.9" y="567.2" width="70.9" height="70.9" fill="#ffffff"/><path d="M 70.9 567.2 A 35.45 35.45 0 0 1  106.35000000000001 602.6500000000001 L 70.9 567.2 A 35.45 35.45 0 0 0 106.35000000000001 602.6500000000001" fill="#cbd8eb"/><path d="M 106.35 602.6500000000001 A 35.45 35.45 0 0 1  141.8 567.2 L 106.35 602.6500000000001 A 35.45 35.45 0 0 0 141.8 567.2" fill="#fababf"/><path d="M 70.9 602.65 A 35.45 35.45 0 0 1  106.35000000000001 638.1 L 70.9 602.65 A 35.45 35.45 0 0 0 106.35000000000001 638.1" fill="#9ab3d8"/><path d="M 106.35 638.1 A 35.45 35.45 0 0 1  141.8 602.65 L 106.35 638.1 A 35.45 35.45 0 0 0 141.8 602.65" fill="#a4badc"/><path d="M 141.8 567.2 A 70.9 70.9 0 0 1  212.70000000000002 638.1 L 141.8 567.2 A 70.9 70.9 0 0 0 212.70000000000002 638.1" fill="#fbbdc2"/><path d="M 212.7 638.1 A 70.9 70.9 0 0 1  283.6 567.2 L 212.7 638.1 A 70.9 70.9 0 0 0 283.6 567.2" fill="#f4606d"/><rect x="283.6" y="567.2" width="70.9" height="70.9" fill="#ffffff"/><path d="M 283.6 602.6500000000001 A 35.45 35.45 0 0 1  319.05 567.2 L 283.6 602.6500000000001 A 35.45 35.45 0 0 0 319.05 567.2" fill="#799acc"/><path d="M 319.05 567.2 A 35.45 35.45 0 0 1  354.5 602.6500000000001 L 319.05 567.2 A 35.45 35.45 0 0 0 354.5 602.6500000000001" fill="#f99ea6"/><path d="M 283.6 638.1 A 35.45 35.45 0 0 1  319.05 602.65 L 283.6 638.1 A 35.45 35.45 0 0 0 319.05 602.65" fill="#f78892"/><path d="M 319.05 638.1 A 35.45 35.45 0 0 1  354.5 602.65 L 319.05 638.1 A 35.45 35.45 0 0 0 354.5 602.65" fill="#7094c9"/><path d="M 354.5 638.1 A 70.9 70.9 0 0 1  425.4 567.2 L 354.5 638.1 A 70.9 70.9 0 0 0 425.4 567.2" fill="#4a77ba"/><path d="M 425.4 638.1 A 70.9 70.9 0 0 1  496.29999999999995 567.2 L 425.4 638.1 A 70.9 70.9 0 0 0 496.29999999999995 567.2" fill="#fccdd1"/><path d="M 496.3 567.2 A 70.9 70.9 0 0 1  567.2 638.1 L 496.3 567.2 A 70.9 70.9 0 0 0 567.2 638.1" fill="#f6737f"/><rect x="567.2" y="567.2" width="70.9" height="70.9" fill="#ffffff"/><path d="M 567.2 567.2 A 35.45 35.45 0 0 1  602.6500000000001 602.6500000000001 L 567.2 567.2 A 35.45 35.45 0 0 0 602.6500000000001 602.6500000000001" fill="#e5ecf5"/><path d="M 602.65 602.6500000000001 A 35.45 35.45 0 0 1  638.1 567.2 L 602.65 602.6500000000001 A 35.45 35.45 0 0 0 638.1 567.2" fill="#91add5"/><path d="M 567.2 602.65 A 35.45 35.45 0 0 1  602.6500000000001 638.1 L 567.2 602.65 A 35.45 35.45 0 0 0 602.6500000000001 638.1" fill="#f45c6a"/><path d="M 602.65 638.1 A 35.45 35.45 0 0 1  638.1 602.65 L 602.65 638.1 A 35.45 35.45 0 0 0 638.1 602.65" fill="#fffafb"/><rect x="638.1" y="567.2" width="70.9" height="70.9" fill="#ffffff"/><path d="M 638.1 602.6500000000001 A 35.45 35.45 0 0 1  673.5500000000001 567.2 L 638.1 602.6500000000001 A 35.45 35.45 0 0 0 673.5500000000001 567.2" fill="#becee6"/><path d="M 673.55 602.6500000000001 A 35.45 35.45 0 0 1  709 567.2 L 673.55 602.6500000000001 A 35.45 35.45 0 0 0 709 567.2" fill="#cdd9ec"/><path d="M 638.1 602.65 A 35.45 35.45 0 0 1  673.5500000000001 638.1 L 638.1 602.65 A 35.45 35.45 0 0 0 673.5500000000001 638.1" fill="#8ca9d3"/><path d="M 673.55 602.65 A 35.45 35.45 0 0 1  709 638.1 L 673.55 602.65 A 35.45 35.45 0 0 0 709 638.1" fill="#fcd6da"/><path d="M 709 567.2 A 70.9 70.9 0 0 1  779.9 638.1 L 709 567.2 A 70.9 70.9 0 0 0 779.9 638.1" fill="#fddadd"/><path d="M 779.9 638.1 A 70.9 70.9 0 0 1  850.8 567.2 L 779.9 638.1 A 70.9 70.9 0 0 0 850.8 567.2" fill="#c4d3e8"/><path d="M 850.8 567.2 A 70.9 70.9 0 0 1  921.6999999999999 638.1 L 850.8 567.2 A 70.9 70.9 0 0 0 921.6999999999999 638.1" fill="#8eaad4"/><path d="M 921.7 567.2 A 70.9 70.9 0 0 1  992.6 638.1 L 921.7 567.2 A 70.9 70.9 0 0 0 992.6 638.1" fill="#f5f8fb"/><path d="M 992.6 567.2 A 70.9 70.9 0 0 1  1063.5 638.1 L 992.6 567.2 A 70.9 70.9 0 0 0 1063.5 638.1" fill="#638ac4"/><path d="M 1063.5 638.1 A 70.9 70.9 0 0 1  1134.4 567.2 L 1063.5 638.1 A 70.9 70.9 0 0 0 1134.4 567.2" fill="#fab3ba"/><path d="M 0 709 A 70.9 70.9 0 0 1  70.9 638.1 L 0 709 A 70.9 70.9 0 0 0 70.9 638.1" fill="#f99fa7"/><path d="M 70.9 709 A 70.9 70.9 0 0 1  141.8 638.1 L 70.9 709 A 70.9 70.9 0 0 0 141.8 638.1" fill="#a8bede"/><path d="M 141.8 709 A 70.9 70.9 0 0 1  212.70000000000002 638.1 L 141.8 709 A 70.9 70.9 0 0 0 212.70000000000002 638.1" fill="#3e6fb6"/><path d="M 212.7 709 A 70.9 70.9 0 0 1  283.6 638.1 L 212.7 709 A 70.9 70.9 0 0 0 283.6 638.1" fill="#f8969f"/><rect x="283.6" y="638.1" width="70.9" height="70.9" fill="#ffffff"/><path d="M 283.6 673.5500000000001 A 35.45 35.45 0 0 1  319.05 638.1 L 283.6 673.5500000000001 A 35.45 35.45 0 0 0 319.05 638.1" fill="#fab1b8"/><path d="M 319.05 638.1 A 35.45 35.45 0 0 1  354.5 673.5500000000001 L 319.05 638.1 A 35.45 35.45 0 0 0 354.5 673.5500000000001" fill="#f56370"/><path d="M 283.6 673.55 A 35.45 35.45 0 0 1  319.05 709 L 283.6 673.55 A 35.45 35.45 0 0 0 319.05 709" fill="#91acd5"/><path d="M 319.05 673.55 A 35.45 35.45 0 0 1  354.5 709 L 319.05 673.55 A 35.45 35.45 0 0 0 354.5 709" fill="#feeeef"/><rect x="354.5" y="638.1" width="70.9" height="70.9" fill="#ffffff"/><path d="M 354.5 638.1 A 35.45 35.45 0 0 1  389.95 673.5500000000001 L 354.5 638.1 A 35.45 35.45 0 0 0 389.95 673.5500000000001" fill="#e6ecf5"/><path d="M 389.95 673.5500000000001 A 35.45 35.45 0 0 1  425.4 638.1 L 389.95 673.5500000000001 A 35.45 35.45 0 0 0 425.4 638.1" fill="#f67c88"/><path d="M 354.5 709 A 35.45 35.45 0 0 1  389.95 673.55 L 354.5 709 A 35.45 35.45 0 0 0 389.95 673.55" fill="#fbc6cb"/><path d="M 389.95 673.55 A 35.45 35.45 0 0 1  425.4 709 L 389.95 673.55 A 35.45 35.45 0 0 0 425.4 709" fill="#f45e6b"/><path d="M 425.4 638.1 A 70.9 70.9 0 0 1  496.29999999999995 709 L 425.4 638.1 A 70.9 70.9 0 0 0 496.29999999999995 709" fill="#4a77ba"/><rect x="496.30000000000007" y="638.1" width="70.9" height="70.9" fill="#ffffff"/><path d="M 496.3 638.1 A 35.45 35.45 0 0 1  531.75 673.5500000000001 L 496.3 638.1 A 35.45 35.45 0 0 0 531.75 673.5500000000001" fill="#7b9ccd"/><path d="M 531.75 638.1 A 35.45 35.45 0 0 1  567.2 673.5500000000001 L 531.75 638.1 A 35.45 35.45 0 0 0 567.2 673.5500000000001" fill="#c0d0e7"/><path d="M 496.3 709 A 35.45 35.45 0 0 1  531.75 673.55 L 496.3 709 A 35.45 35.45 0 0 0 531.75 673.55" fill="#f67783"/><path d="M 531.75 709 A 35.45 35.45 0 0 1  567.2 673.55 L 531.75 709 A 35.45 35.45 0 0 0 567.2 673.55" fill="#f89ba4"/><path d="M 567.2 709 A 70.9 70.9 0 0 1  638.1 638.1 L 567.2 709 A 70.9 70.9 0 0 0 638.1 638.1" fill="#fddde0"/><path d="M 638.1 638.1 A 70.9 70.9 0 0 1  709 709 L 638.1 638.1 A 70.9 70.9 0 0 0 709 709" fill="#fcd9dd"/><path d="M 709 638.1 A 70.9 70.9 0 0 1  779.9 709 L 709 638.1 A 70.9 70.9 0 0 0 779.9 709" fill="#f78d96"/><path d="M 779.9 709 A 70.9 70.9 0 0 1  850.8 638.1 L 779.9 709 A 70.9 70.9 0 0 0 850.8 638.1" fill="#4674b9"/><path d="M 850.8 709 A 70.9 70.9 0 0 1  921.6999999999999 638.1 L 850.8 709 A 70.9 70.9 0 0 0 921.6999999999999 638.1" fill="#5e87c2"/><path d="M 921.7 709 A 70.9 70.9 0 0 1  992.6 638.1 L 921.7 709 A 70.9 70.9 0 0 0 992.6 638.1" fill="#7b9ccd"/><path d="M 992.6 638.1 A 70.9 70.9 0 0 1  1063.5 709 L 992.6 638.1 A 70.9 70.9 0 0 0 1063.5 709" fill="#f9acb3"/><rect x="1063.5" y="638.1" width="70.9" height="70.9" fill="#ffffff"/><path d="M 1063.5 638.1 A 35.45 35.45 0 0 1  1098.95 673.5500000000001 L 1063.5 638.1 A 35.45 35.45 0 0 0 1098.95 673.5500000000001" fill="#82a1cf"/><path d="M 1098.95 673.5500000000001 A 35.45 35.45 0 0 1  1134.4 638.1 L 1098.95 673.5500000000001 A 35.45 35.45 0 0 0 1134.4 638.1" fill="#f67480"/><path d="M 1063.5 673.55 A 35.45 35.45 0 0 1  1098.95 709 L 1063.5 673.55 A 35.45 35.45 0 0 0 1098.95 709" fill="#f78f99"/><path d="M 1098.95 709 A 35.45 35.45 0 0 1  1134.4 673.55 L 1098.95 709 A 35.45 35.45 0 0 0 1134.4 673.55" fill="#f9a1a9"/></g></svg>