<?xml version="1.0" standalone="no"?><svg xmlns:xlink="http://www.w3.org/1999/xlink" xmlns="http://www.w3.org/2000/svg" viewBox="0 0 1920 1080.0010352770662" preserveAspectRatio="xMaxYMax slice"><g transform="scale(1.656443305639672)"><rect x="0" y="0" width="1159.111111111111" height="652" fill="#ffffff"/><path d="M 289.78 0 A 72.44 72.44 0 0 1  362.21999999999997 72.44 L 289.78 0 A 72.44 72.44 0 0 0 362.21999999999997 72.44" fill="#3154e4"/><rect x="362.22222222222223" y="0" width="72.44444444444444" height="72.44444444444444" fill="#ffffff"/><path d="M 362.22 72.44 A 36.22 36.22 0 0 1  398.44000000000005 36.22 L 362.22 72.44 A 36.22 36.22 0 0 0 398.44000000000005 36.22" fill="#fef4c9"/><path d="M 869.33 72.44 A 72.44 72.44 0 0 1  941.77 0 L 869.33 72.44 A 72.44 72.44 0 0 0 941.77 0" fill="#fef2be"/><path d="M 941.78 72.44 A 72.44 72.44 0 0 1  1014.22 0 L 941.78 72.44 A 72.44 72.44 0 0 0 1014.22 0" fill="#fef1ba"/><rect x="1086.6666666666667" y="0" width="72.44444444444444" height="72.44444444444444" fill="#ffffff"/><path d="M 1086.67 36.22 A 36.22 36.22 0 0 1  1122.89 0 L 1086.67 36.22 A 36.22 36.22 0 0 0 1122.89 0" fill="#f67f8a"/><path d="M 144.89 72.44 A 72.44 72.44 0 0 1  217.32999999999998 144.88 L 144.89 72.44 A 72.44 72.44 0 0 0 217.32999999999998 144.88" fill="#f56673"/><rect x="217.33333333333331" y="72.44444444444444" width="72.44444444444444" height="72.44444444444444" fill="#ffffff"/><path d="M 253.56 144.89 A 36.22 36.22 0 0 1  289.78 108.67 L 253.56 144.89 A 36.22 36.22 0 0 0 289.78 108.67" fill="#fff8db"/><rect x="289.77777777777777" y="72.44444444444444" width="72.44444444444444" height="72.44444444444444" fill="#ffffff"/><rect x="434.66666666666663" y="72.44444444444444" width="72.44444444444444" height="72.44444444444444" fill="#ffffff"/><path d="M 434.67 72.44 A 36.22 36.22 0 0 1  470.89 108.66 L 434.67 72.44 A 36.22 36.22 0 0 0 470.89 108.66" fill="#1a41e1"/><path d="M 470.89 108.67 A 36.22 36.22 0 0 1  507.11 144.89 L 470.89 108.67 A 36.22 36.22 0 0 0 507.11 144.89" fill="#f99ea7"/><rect x="652" y="72.44444444444444" width="72.44444444444444" height="72.44444444444444" fill="#ffffff"/><path d="M 688.22 108.67 A 36.22 36.22 0 0 1  724.44 144.89 L 688.22 108.67 A 36.22 36.22 0 0 0 724.44 144.89" fill="#f56875"/><rect x="652" y="144.88888888888889" width="72.44444444444444" height="72.44444444444444" fill="#ffffff"/><path d="M 652 181.10999999999999 A 36.22 36.22 0 0 1  688.22 144.89 L 652 181.10999999999999 A 36.22 36.22 0 0 0 688.22 144.89" fill="#fef6d6"/><path d="M 796.89 217.32999999999998 A 72.44 72.44 0 0 1  869.3299999999999 144.89 L 796.89 217.32999999999998 A 72.44 72.44 0 0 0 869.3299999999999 144.89" fill="#fffdf6"/><rect x="869.3333333333333" y="144.88888888888889" width="72.44444444444444" height="72.44444444444444" fill="#ffffff"/><path d="M 869.33 217.33 A 36.22 36.22 0 0 1  905.5500000000001 181.11 L 869.33 217.33 A 36.22 36.22 0 0 0 905.5500000000001 181.11" fill="#3053e4"/><rect x="0" y="217.33333333333331" width="72.44444444444444" height="72.44444444444444" fill="#ffffff"/><path d="M 36.22 217.33 A 36.22 36.22 0 0 1  72.44 253.55 L 36.22 217.33 A 36.22 36.22 0 0 0 72.44 253.55" fill="#f4f6fe"/><rect x="434.66666666666663" y="217.33333333333331" width="72.44444444444444" height="72.44444444444444" fill="#ffffff"/><path d="M 470.89 289.78 A 36.22 36.22 0 0 1  507.11 253.56 L 470.89 289.78 A 36.22 36.22 0 0 0 507.11 253.56" fill="#f67783"/><rect x="579.5555555555555" y="217.33333333333331" width="72.44444444444444" height="72.44444444444444" fill="#ffffff"/><path d="M 579.56 217.33 A 36.22 36.22 0 0 1  615.78 253.55 L 579.56 217.33 A 36.22 36.22 0 0 0 615.78 253.55" fill="#fddde0"/><path d="M 144.89 289.78 A 72.44 72.44 0 0 1  217.32999999999998 362.21999999999997 L 144.89 289.78 A 72.44 72.44 0 0 0 217.32999999999998 362.21999999999997" fill="#b6c2f5"/><rect x="796.8888888888889" y="289.77777777777777" width="72.44444444444444" height="72.44444444444444" fill="#ffffff"/><path d="M 833.11 289.78 A 36.22 36.22 0 0 1  869.33 326 L 833.11 289.78 A 36.22 36.22 0 0 0 869.33 326" fill="#9eaff2"/><path d="M 0 362.22 A 72.44 72.44 0 0 1  72.44 434.66 L 0 362.22 A 72.44 72.44 0 0 0 72.44 434.66" fill="#fef4cc"/><rect x="144.88888888888889" y="362.22222222222223" width="72.44444444444444" height="72.44444444444444" fill="#ffffff"/><path d="M 144.89 434.65999999999997 A 36.22 36.22 0 0 1  181.10999999999999 398.44 L 144.89 434.65999999999997 A 36.22 36.22 0 0 0 181.10999999999999 398.44" fill="#fab6bc"/><path d="M 579.56 362.22 A 72.44 72.44 0 0 1  652 434.66 L 579.56 362.22 A 72.44 72.44 0 0 0 652 434.66" fill="#f8f9fe"/><path d="M 652 434.66 A 72.44 72.44 0 0 1  724.44 362.22 L 652 434.66 A 72.44 72.44 0 0 0 724.44 362.22" fill="#fff7da"/><rect x="941.7777777777777" y="362.22222222222223" width="72.44444444444444" height="72.44444444444444" fill="#ffffff"/><path d="M 941.78 398.44 A 36.22 36.22 0 0 1  978 434.65999999999997 L 941.78 398.44 A 36.22 36.22 0 0 0 978 434.65999999999997" fill="#4161e6"/><path d="M 978 398.44 A 36.22 36.22 0 0 1  1014.22 434.65999999999997 L 978 398.44 A 36.22 36.22 0 0 0 1014.22 434.65999999999997" fill="#fef4c9"/><path d="M 434.67 507.11 A 72.44 72.44 0 0 1  507.11 434.67 L 434.67 507.11 A 72.44 72.44 0 0 0 507.11 434.67" fill="#3c5de6"/><path d="M 507.11 507.11 A 72.44 72.44 0 0 1  579.55 434.67 L 507.11 507.11 A 72.44 72.44 0 0 0 579.55 434.67" fill="#feeca6"/><rect x="1086.6666666666667" y="434.66666666666663" width="72.44444444444444" height="72.44444444444444" fill="#ffffff"/><rect x="144.88888888888889" y="507.1111111111111" width="72.44444444444444" height="72.44444444444444" fill="#ffffff"/><rect x="217.33333333333331" y="507.1111111111111" width="72.44444444444444" height="72.44444444444444" fill="#ffffff"/><path d="M 217.33 543.33 A 36.22 36.22 0 0 1  253.55 507.11 L 217.33 543.33 A 36.22 36.22 0 0 0 253.55 507.11" fill="#fde379"/><path d="M 253.56 579.5500000000001 A 36.22 36.22 0 0 1  289.78 543.33 L 253.56 579.5500000000001 A 36.22 36.22 0 0 0 289.78 543.33" fill="#fff8df"/><rect x="362.22222222222223" y="507.1111111111111" width="72.44444444444444" height="72.44444444444444" fill="#ffffff"/><path d="M 398.44 543.33 A 36.22 36.22 0 0 1  434.65999999999997 507.11 L 398.44 543.33 A 36.22 36.22 0 0 0 434.65999999999997 507.11" fill="#aab8f4"/><path d="M 362.22 543.33 A 36.22 36.22 0 0 1  398.44000000000005 579.5500000000001 L 362.22 543.33 A 36.22 36.22 0 0 0 398.44000000000005 579.5500000000001" fill="#feeeae"/><rect x="434.66666666666663" y="507.1111111111111" width="72.44444444444444" height="72.44444444444444" fill="#ffffff"/><rect x="652" y="507.1111111111111" width="72.44444444444444" height="72.44444444444444" fill="#ffffff"/><rect x="724.4444444444445" y="507.1111111111111" width="72.44444444444444" height="72.44444444444444" fill="#ffffff"/><path d="M 724.44 507.11 A 36.22 36.22 0 0 1  760.6600000000001 543.33 L 724.44 507.11 A 36.22 36.22 0 0 0 760.6600000000001 543.33" fill="#fab3b9"/><path d="M 869.33 507.11 A 72.44 72.44 0 0 1  941.77 579.55 L 869.33 507.11 A 72.44 72.44 0 0 0 941.77 579.55" fill="#fcd3d7"/><path d="M 941.78 507.11 A 72.44 72.44 0 0 1  1014.22 579.55 L 941.78 507.11 A 72.44 72.44 0 0 0 1014.22 579.55" fill="#f4606d"/><path d="M 144.89 579.56 A 72.44 72.44 0 0 1  217.32999999999998 652 L 144.89 579.56 A 72.44 72.44 0 0 0 217.32999999999998 652" fill="#fef5f6"/><rect x="217.33333333333331" y="579.5555555555555" width="72.44444444444444" height="72.44444444444444" fill="#ffffff"/><path d="M 253.56 615.78 A 36.22 36.22 0 0 1  289.78 652 L 253.56 615.78 A 36.22 36.22 0 0 0 289.78 652" fill="#f45f6d"/><path d="M 289.78 579.56 A 72.44 72.44 0 0 1  362.21999999999997 652 L 289.78 579.56 A 72.44 72.44 0 0 0 362.21999999999997 652" fill="#ced6f9"/><rect x="507.1111111111111" y="579.5555555555555" width="72.44444444444444" height="72.44444444444444" fill="#ffffff"/><rect x="652" y="579.5555555555555" width="72.44444444444444" height="72.44444444444444" fill="#ffffff"/><path d="M 796.89 652 A 72.44 72.44 0 0 1  869.3299999999999 579.56 L 796.89 652 A 72.44 72.44 0 0 0 869.3299999999999 579.56" fill="#fef1f2"/><rect x="941.7777777777777" y="579.5555555555555" width="72.44444444444444" height="72.44444444444444" fill="#ffffff"/><path d="M 941.78 579.56 A 36.22 36.22 0 0 1  978 615.78 L 941.78 579.56 A 36.22 36.22 0 0 0 978 615.78" fill="#f6737f"/><path d="M 978 579.56 A 36.22 36.22 0 0 1  1014.22 615.78 L 978 579.56 A 36.22 36.22 0 0 0 1014.22 615.78" fill="#e9ecfc"/><path d="M 978 652 A 36.22 36.22 0 0 1  1014.22 615.78 L 978 652 A 36.22 36.22 0 0 0 1014.22 615.78" fill="#2e52e4"/></g></svg>