<?xml version="1.0" standalone="no"?><svg xmlns:xlink="http://www.w3.org/1999/xlink" xmlns="http://www.w3.org/2000/svg" viewBox="0 0 1920 1080.0010352770662" preserveAspectRatio="xMaxYMax slice"><g transform="scale(1.656443305639672)"><rect x="0" y="0" width="1159.111111111111" height="652" fill="#ffffff"/><rect x="72.44444444444444" y="0" width="72.44444444444444" height="72.44444444444444" fill="#ffffff"/><path d="M 72.44 36.22 A 36.22 36.22 0 0 1  108.66 0 L 72.44 36.22 A 36.22 36.22 0 0 0 108.66 0" fill="#f8909a"/><path d="M 217.33 72.44 A 72.44 72.44 0 0 1  289.77 0 L 217.33 72.44 A 72.44 72.44 0 0 0 289.77 0" fill="#8ba8d3"/><rect x="289.77777777777777" y="0" width="72.44444444444444" height="72.44444444444444" fill="#ffffff"/><path d="M 289.78 0 A 36.22 36.22 0 0 1  326 36.22 L 289.78 0 A 36.22 36.22 0 0 0 326 36.22" fill="#e4ebf5"/><path d="M 326 0 A 36.22 36.22 0 0 1  362.22 36.22 L 326 0 A 36.22 36.22 0 0 0 362.22 36.22" fill="#fab8be"/><path d="M 326 72.44 A 36.22 36.22 0 0 1  362.22 36.22 L 326 72.44 A 36.22 36.22 0 0 0 362.22 36.22" fill="#fab1b8"/><rect x="362.22222222222223" y="0" width="72.44444444444444" height="72.44444444444444" fill="#ffffff"/><path d="M 796.89 0 A 72.44 72.44 0 0 1  869.3299999999999 72.44 L 796.89 0 A 72.44 72.44 0 0 0 869.3299999999999 72.44" fill="#2e62b0"/><path d="M 0 72.44 A 72.44 72.44 0 0 1  72.44 144.88 L 0 72.44 A 72.44 72.44 0 0 0 72.44 144.88" fill="#f1f4fa"/><path d="M 72.44 72.44 A 72.44 72.44 0 0 1  144.88 144.88 L 72.44 72.44 A 72.44 72.44 0 0 0 144.88 144.88" fill="#cedaec"/><path d="M 144.89 144.88 A 72.44 72.44 0 0 1  217.32999999999998 72.44 L 144.89 144.88 A 72.44 72.44 0 0 0 217.32999999999998 72.44" fill="#cbd8eb"/><rect x="652" y="72.44444444444444" width="72.44444444444444" height="72.44444444444444" fill="#ffffff"/><path d="M 652 72.44 A 36.22 36.22 0 0 1  688.22 108.66 L 652 72.44 A 36.22 36.22 0 0 0 688.22 108.66" fill="#7a9bcd"/><path d="M 688.22 72.44 A 36.22 36.22 0 0 1  724.44 108.66 L 688.22 72.44 A 36.22 36.22 0 0 0 724.44 108.66" fill="#3c6db5"/><path d="M 652 108.67 A 36.22 36.22 0 0 1  688.22 144.89 L 652 108.67 A 36.22 36.22 0 0 0 688.22 144.89" fill="#c5d3e9"/><path d="M 796.89 72.44 A 72.44 72.44 0 0 1  869.3299999999999 144.88 L 796.89 72.44 A 72.44 72.44 0 0 0 869.3299999999999 144.88" fill="#f3f6fb"/><rect x="362.22222222222223" y="144.88888888888889" width="72.44444444444444" height="72.44444444444444" fill="#ffffff"/><path d="M 398.44 144.89 A 36.22 36.22 0 0 1  434.65999999999997 181.10999999999999 L 398.44 144.89 A 36.22 36.22 0 0 0 434.65999999999997 181.10999999999999" fill="#fab6bc"/><path d="M 398.44 217.33 A 36.22 36.22 0 0 1  434.65999999999997 181.11 L 398.44 217.33 A 36.22 36.22 0 0 0 434.65999999999997 181.11" fill="#f2f6fa"/><path d="M 796.89 217.32999999999998 A 72.44 72.44 0 0 1  869.3299999999999 144.89 L 796.89 217.32999999999998 A 72.44 72.44 0 0 0 869.3299999999999 144.89" fill="#80a0cf"/><path d="M 869.33 217.32999999999998 A 72.44 72.44 0 0 1  941.77 144.89 L 869.33 217.32999999999998 A 72.44 72.44 0 0 0 941.77 144.89" fill="#fccdd1"/><rect x="941.7777777777777" y="144.88888888888889" width="72.44444444444444" height="72.44444444444444" fill="#ffffff"/><path d="M 941.78 217.33 A 36.22 36.22 0 0 1  978 181.11 L 941.78 217.33 A 36.22 36.22 0 0 0 978 181.11" fill="#fef0f1"/><path d="M 72.44 217.33 A 72.44 72.44 0 0 1  144.88 289.77 L 72.44 217.33 A 72.44 72.44 0 0 0 144.88 289.77" fill="#ffffff"/><path d="M 507.11 289.77 A 72.44 72.44 0 0 1  579.55 217.33 L 507.11 289.77 A 72.44 72.44 0 0 0 579.55 217.33" fill="#f6737f"/><rect x="652" y="217.33333333333331" width="72.44444444444444" height="72.44444444444444" fill="#ffffff"/><path d="M 652 289.78 A 36.22 36.22 0 0 1  688.22 253.56 L 652 289.78 A 36.22 36.22 0 0 0 688.22 253.56" fill="#4675b9"/><rect x="796.8888888888889" y="217.33333333333331" width="72.44444444444444" height="72.44444444444444" fill="#ffffff"/><path d="M 833.11 217.33 A 36.22 36.22 0 0 1  869.33 253.55 L 833.11 217.33 A 36.22 36.22 0 0 0 869.33 253.55" fill="#4f7bbc"/><path d="M 941.78 217.33 A 72.44 72.44 0 0 1  1014.22 289.77 L 941.78 217.33 A 72.44 72.44 0 0 0 1014.22 289.77" fill="#a8bede"/><path d="M 0 289.78 A 72.44 72.44 0 0 1  72.44 362.21999999999997 L 0 289.78 A 72.44 72.44 0 0 0 72.44 362.21999999999997" fill="#91add5"/><rect x="507.1111111111111" y="289.77777777777777" width="72.44444444444444" height="72.44444444444444" fill="#ffffff"/><path d="M 507.11 326 A 36.22 36.22 0 0 1  543.33 289.78 L 507.11 326 A 36.22 36.22 0 0 0 543.33 289.78" fill="#97b1d7"/><path d="M 543.33 326 A 36.22 36.22 0 0 1  579.5500000000001 289.78 L 543.33 326 A 36.22 36.22 0 0 0 579.5500000000001 289.78" fill="#b8cae4"/><path d="M 652 289.78 A 72.44 72.44 0 0 1  724.44 362.21999999999997 L 652 289.78 A 72.44 72.44 0 0 0 724.44 362.21999999999997" fill="#fbbfc5"/><path d="M 796.89 289.78 A 72.44 72.44 0 0 1  869.3299999999999 362.21999999999997 L 796.89 289.78 A 72.44 72.44 0 0 0 869.3299999999999 362.21999999999997" fill="#f78a94"/><rect x="869.3333333333333" y="289.77777777777777" width="72.44444444444444" height="72.44444444444444" fill="#ffffff"/><path d="M 905.56 326 A 36.22 36.22 0 0 1  941.78 362.22 L 905.56 326 A 36.22 36.22 0 0 0 941.78 362.22" fill="#c9d6ea"/><path d="M 1014.22 289.78 A 72.44 72.44 0 0 1  1086.66 362.21999999999997 L 1014.22 289.78 A 72.44 72.44 0 0 0 1086.66 362.21999999999997" fill="#f89ca4"/><rect x="1086.6666666666667" y="289.77777777777777" width="72.44444444444444" height="72.44444444444444" fill="#ffffff"/><path d="M 1086.67 289.78 A 36.22 36.22 0 0 1  1122.89 326 L 1086.67 289.78 A 36.22 36.22 0 0 0 1122.89 326" fill="#fee9eb"/><rect x="289.77777777777777" y="362.22222222222223" width="72.44444444444444" height="72.44444444444444" fill="#ffffff"/><path d="M 326 362.22 A 36.22 36.22 0 0 1  362.22 398.44000000000005 L 326 362.22 A 36.22 36.22 0 0 0 362.22 398.44000000000005" fill="#3c6db5"/><path d="M 579.56 362.22 A 72.44 72.44 0 0 1  652 434.66 L 579.56 362.22 A 72.44 72.44 0 0 0 652 434.66" fill="#feeff0"/><path d="M 1086.67 434.66 A 72.44 72.44 0 0 1  1159.1100000000001 362.22 L 1086.67 434.66 A 72.44 72.44 0 0 0 1159.1100000000001 362.22" fill="#fab5bc"/><path d="M 0 434.67 A 72.44 72.44 0 0 1  72.44 507.11 L 0 434.67 A 72.44 72.44 0 0 0 72.44 507.11" fill="#f9a4ac"/><rect x="72.44444444444444" y="434.66666666666663" width="72.44444444444444" height="72.44444444444444" fill="#ffffff"/><path d="M 72.44 470.89 A 36.22 36.22 0 0 1  108.66 434.67 L 72.44 470.89 A 36.22 36.22 0 0 0 108.66 434.67" fill="#f67884"/><path d="M 144.89 507.11 A 72.44 72.44 0 0 1  217.32999999999998 434.67 L 144.89 507.11 A 72.44 72.44 0 0 0 217.32999999999998 434.67" fill="#eff3f9"/><path d="M 289.78 434.67 A 72.44 72.44 0 0 1  362.21999999999997 507.11 L 289.78 434.67 A 72.44 72.44 0 0 0 362.21999999999997 507.11" fill="#f7848f"/><path d="M 362.22 434.67 A 72.44 72.44 0 0 1  434.66 507.11 L 362.22 434.67 A 72.44 72.44 0 0 0 434.66 507.11" fill="#5882c0"/><rect x="507.1111111111111" y="434.66666666666663" width="72.44444444444444" height="72.44444444444444" fill="#ffffff"/><path d="M 507.11 507.11 A 36.22 36.22 0 0 1  543.33 470.89 L 507.11 507.11 A 36.22 36.22 0 0 0 543.33 470.89" fill="#fef0f1"/><rect x="579.5555555555555" y="434.66666666666663" width="72.44444444444444" height="72.44444444444444" fill="#ffffff"/><path d="M 579.56 507.11 A 36.22 36.22 0 0 1  615.78 470.89 L 579.56 507.11 A 36.22 36.22 0 0 0 615.78 470.89" fill="#b9cbe4"/><path d="M 652 507.11 A 72.44 72.44 0 0 1  724.44 434.67 L 652 507.11 A 72.44 72.44 0 0 0 724.44 434.67" fill="#a5bbdd"/><path d="M 796.89 434.67 A 72.44 72.44 0 0 1  869.3299999999999 507.11 L 796.89 434.67 A 72.44 72.44 0 0 0 869.3299999999999 507.11" fill="#feeaec"/><rect x="289.77777777777777" y="507.1111111111111" width="72.44444444444444" height="72.44444444444444" fill="#ffffff"/><path d="M 326 543.33 A 36.22 36.22 0 0 1  362.22 507.11 L 326 543.33 A 36.22 36.22 0 0 0 362.22 507.11" fill="#f7838d"/><path d="M 289.78 543.33 A 36.22 36.22 0 0 1  326 579.5500000000001 L 289.78 543.33 A 36.22 36.22 0 0 0 326 579.5500000000001" fill="#feedee"/><path d="M 362.22 507.11 A 72.44 72.44 0 0 1  434.66 579.55 L 362.22 507.11 A 72.44 72.44 0 0 0 434.66 579.55" fill="#f67682"/><rect x="507.1111111111111" y="507.1111111111111" width="72.44444444444444" height="72.44444444444444" fill="#ffffff"/><path d="M 507.11 507.11 A 36.22 36.22 0 0 1  543.33 543.33 L 507.11 507.11 A 36.22 36.22 0 0 0 543.33 543.33" fill="#f56b77"/><rect x="652" y="507.1111111111111" width="72.44444444444444" height="72.44444444444444" fill="#ffffff"/><path d="M 796.89 507.11 A 72.44 72.44 0 0 1  869.3299999999999 579.55 L 796.89 507.11 A 72.44 72.44 0 0 0 869.3299999999999 579.55" fill="#fbc2c8"/><path d="M 1014.22 579.55 A 72.44 72.44 0 0 1  1086.66 507.11 L 1014.22 579.55 A 72.44 72.44 0 0 0 1086.66 507.11" fill="#fde0e2"/><rect x="362.22222222222223" y="579.5555555555555" width="72.44444444444444" height="72.44444444444444" fill="#ffffff"/><path d="M 398.44 615.78 A 36.22 36.22 0 0 1  434.65999999999997 652 L 398.44 615.78 A 36.22 36.22 0 0 0 434.65999999999997 652" fill="#f78b95"/></g></svg>