<?xml version="1.0" encoding="utf-8"?>
<!-- Generator: Adobe Illustrator 25.4.1, SVG Export Plug-In . SVG Version: 6.00 Build 0)  -->
<svg version="1.1" id="Layer_1" xmlns="http://www.w3.org/2000/svg" xmlns:xlink="http://www.w3.org/1999/xlink" x="0px" y="0px"
	 viewBox="0 0 81.8 52.3" style="enable-background:new 0 0 81.8 52.3;" xml:space="preserve">
<path d="M19.4,43.4c-0.1,0-0.3-0.1-0.4,0c-3,1.1-6.2,0.7-9.3,0.8c-2,0.1-3.9-0.4-5.7-1.4c-1.9-1.1-3-3.2-2.8-5.4
	c0.2-1.4,1-2.6,2.2-3.3c2.4-1.5,5.4-2,8.2-1.3c0.1,0,0.3,0,0.4,0c2.2-3.6,5.1-6.6,8.6-8.9c0-0.2,0-0.3-0.1-0.4
	c-1.8-1.2-2.7-3.5-2-5.6c0.2-1.1,0.5-2.2,0.9-3.3c0.9-2.5,0.9-5,1.1-7.6c0-0.3,0.1-0.5,0.1-0.8c0.9-0.6,2-0.5,2.7,0.2
	c1.5,1.2,3,2.3,4.6,3.4c2.2,1.5,2.9,3.7,3,6.2c0,1.1-0.2,2.2-0.3,3.2l4.8-1.1c-0.2-1.8-0.3-3.4-0.4-5c-0.1-1.4,0.4-2.9,1.3-4
	C37.8,7.9,39,6.4,40,4.8c0.6-1,1.3-1.8,2.1-2.7c0.2-0.2,0.3-0.3,0.5-0.4c1,0.8,1.9,1.8,2.5,3c0.9,1.6,1.8,3.1,2.6,4.7
	c0.5,1,0.8,2.1,0.7,3.2c-0.1,2.5-1.1,4.9-2.9,6.7l4.2,1.3c0.5-1.5,0.8-2.8,1.3-4.2c0.5-1.2,1.4-2.1,2.6-2.6c2.2-1,4.5-2,6.2-4
	c0.3-0.5,0.9-0.6,1.4-0.3c0.1,0.1,0.2,0.2,0.3,0.3c1,0.9,1.5,2.2,1.4,3.5c-0.3,2.4-0.3,4.9,0,7.4c0.2,2.1-1.2,3.4-2.6,4.7
	c-0.3,0.2-0.7,0.4-1,0.6l3.2,2.3c0.2-0.5,0.4-0.9,0.7-1.3c0.4-0.8,1.1-1.4,2-1.6c2.6-0.4,5-1.9,6.4-4.2c0.9,1.5,1.6,2.7,0.9,4.4
	c-0.3,1.1-0.4,2.3-0.2,3.4c0.4,1.8,0.2,3.7-0.6,5.4c0.7-0.2,1.3-0.4,1.9-0.7c2.1-1,3.6-3,3.9-5.4c0-0.9,0.3-1.8,0.9-2.5
	c0.7,0.6,1.1,1.6,1.1,2.5c0,2.8-1,5.5-1.9,8.9c-1.1,3.7-3.7,5-7,5.8c-3.6,0.9-7.4,1.2-11.1,1c0,1.1,0,2.1-0.1,3.1
	c0,0.8-0.1,1.7-0.3,2.5c0,0.6-0.5,1-1.1,0.9c-0.1,0-0.1,0-0.2,0c-2-0.4-4.1-0.5-6.2-0.3c-1.4,0.1-2.1-0.7-2.3-2.3
	c-0.1-1.1-0.2-2.2-0.3-3.3c0-0.3-0.1-0.5-0.2-0.9c-1.4-0.2-2.8-0.3-4.2-0.5c-3.7-0.3-7.3-0.6-11-0.9l-1-0.1c-0.7,0-1.1,0.3-1.1,1
	s0,1.3,0,2c0,0.5,0,1-0.1,1.5c-0.3,2.2-0.5,3.1-2.9,3.3c-1.6,0-4.9-0.2-6.5-0.4c-2.5-0.2-2.3-2.8-2.3-5.6
	C19.5,43.9,19.5,43.7,19.4,43.4z M29,47.6c0.4-1.9,0.4-3.9,0.2-5.8c-0.4-1.7,0.2-2.3,2-2.2c2.8,0.2,5.7,0.5,8.5,0.8
	c3,0.2,6,0.5,9,0.7c1.8,0.1,2.2,0.4,2.2,2.2c0,1.4,0.2,2.8,0.7,4.2h5.8c0-1.6,0-3.2,0-4.7c0-1.3,0.4-1.6,1.7-1.3
	c0.9,0.2,1.8,0.3,2.8,0.3c2.3-0.1,4.6-0.4,6.8-0.8c1.5-0.3,3-0.8,4.4-1.5c1.5-0.6,2.5-2.1,2.6-3.7c-0.9,0.3-1.7,0.5-2.4,0.9
	c-2.7,1.2-4.9,0.4-6.8-1.5c-0.2-0.2-0.4-0.5-0.7-0.7c-2.1-1.9-4.1-3.8-6.2-5.6c-1-0.9-2.3-1.6-3.4-2.4c-4-2.8-8.6-4.7-13.4-5.5
	c-4.1-0.9-8.2-0.1-12.1,1.2c-5.7,1.8-10.7,5.2-14.5,9.8c-0.7,0.9-1.5,1.7-2.3,2.6c0,0.5-0.1,1-0.2,1.8c-0.4-0.2-0.8-0.5-1.2-0.6
	c-0.4-0.2-0.9-0.4-1.4-0.5c-2.2-0.2-4.4,0.4-6.2,1.7C3,37.8,3,39.6,4.8,40.6c1,0.6,2.1,0.9,3.3,1c1.9,0.2,3.7,0,5.6,0
	c2,0.1,3.9-0.3,5.7-1.3c0.9-0.5,1.2-0.4,1.8,0.5c0.3,0.5,0.4,1,0.5,1.5c0.2,0.9,0.4,3.9,0.6,4.8C24.4,47.6,26.7,47.8,29,47.6z
	 M43,5.1c-1.4,1.6-2.6,3.1-3.8,4.5c-1.5,1.8-2,4.3-1.3,6.6c0.4,1.8,0.6,1.7,2.4,2c4.3,0.8,4.1,0.1,4.6-1c1.3-3,2-4.8,0.8-7.4
	C44.8,8.3,43.9,6.8,43,5.1z M23,9c0.2,3-0.8,5.4-1.5,7.9c-0.2,0.9-0.3,1.8-0.3,2.7c0,0.5,0.1,1,0.3,1.4c0.3,1,1.2,1.5,2.2,1.3
	c0.2-0.1,0.4-0.1,0.6-0.3l2.5-1.2c0.3-0.1,0.5-0.2,0.7-0.4c2.3-2.5,2.1-6.5-0.4-8.8c-0.2-0.2-0.4-0.4-0.7-0.5L23,9z M52.5,21.8
	c1.3,0.7,3.2,2.1,5.1,3.2c0.6-0.1,2.3-2.8,2.7-3.5c0.5-1.1,0.7-2.3,0.4-3.4c-0.3-2.1-0.1-5.2-0.2-5.3c-0.7,0.5-1.5,0.9-2.2,1.3
	s-1.6,1-2.4,1.3C53,16.8,52,18.7,52.5,21.8L52.5,21.8z M70,26.1c-1.4,0.4-2.8,0.8-4,1.2c-0.4,0.1-0.8,0.4-1.1,0.7
	c-0.7,0.5-0.9,1.5-0.4,2.3c0.1,0.1,0.2,0.3,0.4,0.4c0.9,0.9,1.8,1.7,2.7,2.6c2.1-0.3,3-1.2,2.9-3C70.4,28.9,70.2,27.6,70,26.1z"/>
<path d="M48.5,32.1c-0.2,0.3-0.6,0.4-0.9,0.4c-0.7,0-1.3-0.5-1.3-1.2c0,0,0,0,0,0c0-0.6,0.5-0.7,0.9-0.7
	C47.8,30.6,48.9,31.4,48.5,32.1z"/>
<path d="M59.5,34.1c-0.4,0.6-1.4,0.3-1.8-0.5c-0.1-0.3-0.1-0.6,0-0.9c0.2-0.2,0.5-0.3,0.8-0.3C59.3,32.5,60.3,33.1,59.5,34.1z"/>
<path d="M8.7,37.7c-0.1,1.4-1.5,1.2-2,0.6c-0.4-0.3-0.4-0.9-0.1-1.3c0,0,0.1-0.1,0.1-0.1C7.3,36.4,8.7,36.4,8.7,37.7z"/>
<path d="M36,29.5c0.8,0.1,1.3,0.8,1.3,1.6c0,0.4-0.6,0.6-0.9,0.6c-0.7,0.1-1.5-0.7-1.3-1.1S35.4,29.5,36,29.5z"/>
<path d="M31.2,25.9c-0.1,1.8-2,0.9-2.3,0c-0.1-0.3-0.1-0.6,0.1-0.9c0.2-0.2,0.5-0.3,0.8-0.2C30.3,25.1,31.3,25.2,31.2,25.9z"/>
<path d="M53.7,28.1c-0.1,0.2-0.4,0.4-0.6,0.4c-0.8,0.1-1.6-0.5-1.5-1.1c0.1-0.3,0.4-0.6,0.7-0.7C52.9,26.7,54,27.6,53.7,28.1z"/>
<path d="M41.1,25c-0.2,0.2-0.5,0.3-0.8,0.3c-0.7,0-1.3-0.6-1.1-1.1c0.2-0.3,0.5-0.5,0.8-0.5C40.6,23.6,41.6,24.4,41.1,25z"/>
<path d="M25.1,31c0,0.5-0.6,0.6-0.9,0.7c-0.5,0.2-1-0.1-1.2-0.6c0-0.1,0-0.1,0-0.2c-0.1-0.5,0.2-1,0.7-0.8S25,30.3,25.1,31z"/>
</svg>
